# xmcd
#
# Track frame offsets: 
#        150
#        17978
#        38198
#        57210
#        80318
#        100337
#        120264
#        139914
#        157227
#        176979
#        196923
#        224180
#        245344
#        270244
#        296131
#
# Disc length: 4232 seconds
#
# Revision: 0
# Processed by: cddbd v1.5.2PL0 Copyright (c) Steve Scherf et al.
# Submitted via: ExactAudioCopyFreeDBPlugin 1.0
#
DISCID=e110860f
DTITLE=Various Artist - 聆聽傷感 感懷男聲
DYEAR=1900
DGENRE=Blues
TTITLE0=往事如昔
TTITLE1=你是我最深愛的人
TTITLE2=錯過的情人
TTITLE3=畫心
TTITLE4=放手去愛
TTITLE5=姑娘我愛你
TTITLE6=愛上你是為了忘了你
TTITLE7=忘了怎樣哭
TTITLE8=白狐
TTITLE9=做我老婆好不好
TTITLE10=如果雲知道
TTITLE11=黃玫瑰
TTITLE12=掌聲響起來
TTITLE13=有沒有人告訴你
TTITLE14=寂寞才說愛
EXTD=
EXTT0=
EXTT1=
EXTT2=
EXTT3=
EXTT4=
EXTT5=
EXTT6=
EXTT7=
EXTT8=
EXTT9=
EXTT10=
EXTT11=
EXTT12=
EXTT13=
EXTT14=
PLAYORDER=
